<svg width="30" height="30" viewBox="0 0 30 30" fill="none" xmlns="http://www.w3.org/2000/svg">
<rect x="0.5" y="0.5" width="29" height="29" rx="14.5" fill="white" stroke="black"/>
<g clip-path="url(#clip0_31_78)">
<mask id="mask0_31_78" style="mask-type:luminance" maskUnits="userSpaceOnUse" x="4" y="4" width="22" height="22">
<path d="M26 4H4V26H26V4Z" fill="white"/>
</mask>
<g mask="url(#mask0_31_78)">
<path d="M9.49992 21.4167C9.49992 22.425 10.3249 23.25 11.3333 23.25H18.6666C19.6749 23.25 20.4999 22.425 20.4999 21.4167V12.25C20.4999 11.2417 19.6749 10.4167 18.6666 10.4167H11.3333C10.3249 10.4167 9.49992 11.2417 9.49992 12.25V21.4167ZM12.2499 12.25H17.7499C18.2541 12.25 18.6666 12.6625 18.6666 13.1667V20.5C18.6666 21.0042 18.2541 21.4167 17.7499 21.4167H12.2499C11.7458 21.4167 11.3333 21.0042 11.3333 20.5V13.1667C11.3333 12.6625 11.7458 12.25 12.2499 12.25ZM18.2083 7.66667L17.5574 7.01583C17.3924 6.85083 17.1541 6.75 16.9158 6.75H13.0841C12.8458 6.75 12.6074 6.85083 12.4424 7.01583L11.7916 7.66667H9.49992C8.99575 7.66667 8.58325 8.07917 8.58325 8.58333C8.58325 9.0875 8.99575 9.5 9.49992 9.5H20.4999C21.0041 9.5 21.4166 9.0875 21.4166 8.58333C21.4166 8.07917 21.0041 7.66667 20.4999 7.66667H18.2083Z" fill="#6871EE"/>
</g>
</g>
<defs>
<clipPath id="clip0_31_78">
<rect width="22" height="22" fill="white" transform="translate(4 4)"/>
</clipPath>
</defs>
</svg>
